<svg width="40" height="40" viewBox="0 0 40 40" fill="none" xmlns="http://www.w3.org/2000/svg">
<g clip-path="url(#clip0_578_2435)">
<g filter="url(#filter0_b_578_2435)">
<circle cx="20" cy="20" r="20" fill="#5B5B5B" fill-opacity="0.14"/>
</g>
</g>
<path fill-rule="evenodd" clip-rule="evenodd" d="M20.222 10.0327C14.6235 10.0327 10.0859 14.5703 10.0859 20.1688C10.0859 24.6464 12.9894 28.4462 17.0178 29.7876C17.5249 29.8791 17.7078 29.5671 17.7078 29.2988C17.7078 29.0579 17.6997 28.4197 17.6966 27.5752C14.8765 28.187 14.281 26.2155 14.281 26.2155C13.8217 25.0448 13.156 24.7328 13.156 24.7328C12.2363 24.1037 13.2261 24.1179 13.2261 24.1179C14.2444 24.1891 14.778 25.1627 14.778 25.1627C15.6824 26.7114 17.1519 26.2643 17.7271 26.0051C17.8196 25.3496 18.0838 24.9025 18.3725 24.6494C16.1225 24.3944 13.7566 23.5244 13.7566 19.6393C13.7566 18.5347 14.152 17.6281 14.7973 16.9208C14.6946 16.6638 14.344 15.6323 14.8979 14.238C14.8979 14.238 15.7485 13.9646 17.6844 15.2756C18.5113 15.0506 19.3642 14.9358 20.221 14.9341C21.0779 14.9355 21.9308 15.0503 22.7576 15.2756C24.6945 13.9636 25.5441 14.238 25.5441 14.238C26.098 15.6323 25.7504 16.6638 25.6447 16.9208C26.2951 17.6281 26.6853 18.5336 26.6853 19.6393C26.6853 23.5346 24.3175 24.3903 22.0594 24.6413C22.4201 24.9543 22.7454 25.5722 22.7454 26.5173C22.7454 27.873 22.7332 28.9664 22.7332 29.2988C22.7332 29.5701 22.914 29.8852 23.4313 29.7856C27.4577 28.4421 30.3581 24.6454 30.3581 20.1688C30.3581 14.5703 25.8206 10.0327 20.222 10.0327Z" fill="white"/>
<defs>
<filter id="filter0_b_578_2435" x="-100" y="-100" width="240" height="240" filterUnits="userSpaceOnUse" color-interpolation-filters="sRGB">
<feFlood flood-opacity="0" result="BackgroundImageFix"/>
<feGaussianBlur in="BackgroundImageFix" stdDeviation="50"/>
<feComposite in2="SourceAlpha" operator="in" result="effect1_backgroundBlur_578_2435"/>
<feBlend mode="normal" in="SourceGraphic" in2="effect1_backgroundBlur_578_2435" result="shape"/>
</filter>
<clipPath id="clip0_578_2435">
<rect width="40" height="40" fill="white"/>
</clipPath>
</defs>
</svg>
