<svg width="75" height="73" viewBox="0 0 75 73" fill="none" xmlns="http://www.w3.org/2000/svg">
<g filter="url(#filter0_d_469_2851)">
<path fill-rule="evenodd" clip-rule="evenodd" d="M37.2466 0C18.8833 0 4 14.8834 4 33.2468C4 47.9333 13.5234 60.3968 26.7366 64.7968C28.4001 65.0968 29.0001 64.0733 29.0001 63.1933C29.0001 62.4033 28.9734 60.31 28.9634 57.54C19.7134 59.5468 17.76 53.08 17.76 53.08C16.2533 49.24 14.07 48.2168 14.07 48.2168C11.0533 46.1533 14.3 46.2 14.3 46.2C17.64 46.4333 19.39 49.6268 19.39 49.6268C22.3566 54.7068 27.1766 53.24 29.0634 52.39C29.3666 50.24 30.2333 48.7733 31.1801 47.9433C23.8001 47.1068 16.04 44.2533 16.04 31.51C16.04 27.8868 17.3367 24.9133 19.4534 22.5933C19.1167 21.75 17.9667 18.3668 19.7834 13.7933C19.7834 13.7933 22.5734 12.8967 28.9234 17.1967C31.6354 16.4589 34.4329 16.0823 37.2434 16.0767C40.0539 16.0812 42.8516 16.4578 45.5633 17.1967C51.9166 12.8933 54.7033 13.7933 54.7033 13.7933C56.5201 18.3668 55.3801 21.75 55.0333 22.5933C57.1666 24.9133 58.4466 27.8833 58.4466 31.51C58.4466 44.2868 50.6801 47.0933 43.2733 47.9168C44.4566 48.9433 45.5234 50.97 45.5234 54.07C45.5234 58.5168 45.4833 62.1033 45.4833 63.1933C45.4833 64.0833 46.0766 65.1168 47.7734 64.79C60.9801 60.3833 70.4933 47.93 70.4933 33.2468C70.4933 14.8834 55.6101 0 37.2466 0Z" fill="white"/>
</g>
<defs>
<filter id="filter0_d_469_2851" x="0" y="0" width="74.4941" height="72.8518" filterUnits="userSpaceOnUse" color-interpolation-filters="sRGB">
<feFlood flood-opacity="0" result="BackgroundImageFix"/>
<feColorMatrix in="SourceAlpha" type="matrix" values="0 0 0 0 0 0 0 0 0 0 0 0 0 0 0 0 0 0 127 0" result="hardAlpha"/>
<feOffset dy="4"/>
<feGaussianBlur stdDeviation="2"/>
<feComposite in2="hardAlpha" operator="out"/>
<feColorMatrix type="matrix" values="0 0 0 0 0 0 0 0 0 0 0 0 0 0 0 0 0 0 0.25 0"/>
<feBlend mode="normal" in2="BackgroundImageFix" result="effect1_dropShadow_469_2851"/>
<feBlend mode="normal" in="SourceGraphic" in2="effect1_dropShadow_469_2851" result="shape"/>
</filter>
</defs>
</svg>
