<svg width="80" height="80" viewBox="0 0 80 80" fill="none" xmlns="http://www.w3.org/2000/svg">
<path fill-rule="evenodd" clip-rule="evenodd" d="M40.0864 6.66748C21.7232 6.66748 6.83984 21.5508 6.83984 39.9143C6.83984 54.6008 16.3632 67.0643 29.5764 71.4642C31.2399 71.7643 31.8399 70.7408 31.8399 69.8608C31.8399 69.0708 31.8132 66.9775 31.8032 64.2075C22.5532 66.2143 20.5998 59.7475 20.5998 59.7475C19.0932 55.9075 16.9098 54.8843 16.9098 54.8843C13.8932 52.8208 17.1398 52.8675 17.1398 52.8675C20.4798 53.1008 22.2298 56.2943 22.2298 56.2943C25.1964 61.3743 30.0164 59.9075 31.9032 59.0575C32.2064 56.9075 33.0732 55.4408 34.0199 54.6108C26.6399 53.7743 18.8798 50.9208 18.8798 38.1775C18.8798 34.5543 20.1765 31.5808 22.2932 29.2608C21.9565 28.4175 20.8065 25.0343 22.6232 20.4608C22.6232 20.4608 25.4132 19.5642 31.7632 23.8642C34.4752 23.1264 37.2727 22.7498 40.0832 22.7442C42.8937 22.7487 45.6914 23.1253 48.4032 23.8642C54.7564 19.5608 57.5432 20.4608 57.5432 20.4608C59.3599 25.0343 58.2199 28.4175 57.8732 29.2608C60.0064 31.5808 61.2864 34.5508 61.2864 38.1775C61.2864 50.9543 53.5199 53.7608 46.1132 54.5843C47.2964 55.6108 48.3632 57.6375 48.3632 60.7375C48.3632 65.1843 48.3232 68.7708 48.3232 69.8608C48.3232 70.7508 48.9164 71.7843 50.6132 71.4575C63.8199 67.0508 73.3332 54.5975 73.3332 39.9143C73.3332 21.5508 58.4499 6.66748 40.0864 6.66748Z" fill="black"/>
</svg>
