<svg width="80" height="80" viewBox="0 0 80 80" fill="none" xmlns="http://www.w3.org/2000/svg">
<g clip-path="url(#clip0_296_3262)">
<path d="M47.8419 51.7747L28.2216 47.6747C28.1394 47.8336 28.048 47.9875 27.9478 48.1356L45.8094 74.1913L46.8869 73.115L49.9256 54.2181C49.412 54.0012 48.9562 53.6672 48.5944 53.243C48.2326 52.8187 47.975 52.3158 47.8419 51.7744V51.7747ZM40.6844 26.1266C39.9494 27.2541 38.6806 28.0003 37.2356 28.0003C37.0131 28.0003 36.7969 27.9778 36.5844 27.9441L27.6366 41.9444L51.5422 31.6569C51.5347 31.5606 51.5134 31.4706 51.5134 31.3719C51.5134 31.1706 51.5409 30.9756 51.5734 30.7831L40.6844 26.1266ZM41.3344 23.5753L52.9172 28.5278C53.2863 28.2393 53.7084 28.0261 54.1597 27.9003L56.0634 16.0628L48.8106 8.81L40.6469 21.5844C41.047 22.1762 41.2841 22.8627 41.3344 23.5753ZM65.6047 25.6041L58.3359 18.3341L56.7559 28.1491C57.1565 28.3505 57.5163 28.6242 57.8172 28.9566L65.6047 25.6041ZM48.1894 49.1894C48.4738 48.673 48.8825 48.2356 49.3784 47.9167C49.8743 47.5979 50.4418 47.4076 51.0297 47.3631L53.1172 34.3794C52.9534 34.2706 52.8072 34.1406 52.6634 34.0069L28.6203 44.3544C28.6816 44.6056 28.7241 44.8619 28.7441 45.1281L48.1894 49.1894ZM67.5847 27.5853L59.1747 31.2041L79.925 40.0756L80 40.0006L67.5847 27.5853ZM52.5559 54.2572L50.0284 69.9709L64.7047 55.2947L54.1334 53.0872C53.728 53.6177 53.1813 54.0232 52.5559 54.2572ZM24.0291 50.2172C23.4978 50.2172 22.9891 50.1259 22.5128 49.9644L17.6378 57.5934L15.7541 55.7109L20.3716 48.4859C20.2574 48.3442 20.151 48.1964 20.0528 48.0431L11.6878 51.6447L9.705 49.6619L18.8612 45.7206L2.30781 42.2656L0.04375 40.0006L0.76 39.2844L19.8491 43.2694C20.0686 42.8529 20.3497 42.472 20.6828 42.1394L11.4178 28.6253L13.2891 26.7541L22.9688 40.8744C23.3164 40.7937 23.6719 40.7521 24.0287 40.7506C24.4375 40.7506 24.8337 40.8081 25.2125 40.9056L34.2703 26.7328C33.5329 25.9679 33.1211 24.9466 33.1216 23.8841C33.1216 23.5591 33.1628 23.2441 33.2341 22.9416L21.9341 18.1103L23.9162 16.1278L34.6225 20.7066C35.1654 20.2591 35.8143 19.9589 36.5068 19.8348C37.1993 19.7106 37.9121 19.7668 38.5766 19.9978L46.9278 6.9275L40.0006 0L0 40.0006L40.0006 80.0013L43.9369 76.065L25.9416 49.8119C25.3393 50.0789 24.6878 50.2169 24.0291 50.2172ZM55.6634 34.9391L53.5397 48.1381C53.9108 48.4364 54.2182 48.8062 54.4434 49.2257C54.6687 49.6451 54.8073 50.1056 54.8509 50.5797L66.9047 53.0959L77.9422 42.0584L58.0197 33.5406C57.4496 34.2996 56.6027 34.802 55.6634 34.9391Z" fill="#25C7B7"/>
</g>
<defs>
<clipPath id="clip0_296_3262">
<rect width="80" height="80" fill="white"/>
</clipPath>
</defs>
</svg>
